<svg width="21" height="20" viewBox="0 0 21 20" fill="none" xmlns="http://www.w3.org/2000/svg">
<g id="adjust-horizontal-alt">
<path id="Vector" d="M0.406249 4.66667L11.7396 4.66667M11.7396 4.66667C11.7396 3.19391 12.9335 2 14.4062 2C15.879 2 17.0729 3.19391 17.0729 4.66667M11.7396 4.66667C11.7396 6.13943 12.9335 7.33333 14.4062 7.33333C15.879 7.33333 17.0729 6.13943 17.0729 4.66667M17.0729 4.66667L20.4062 4.66667M0.406249 15.3333L3.73958 15.3333M3.73958 15.3333C3.73958 13.8606 4.93349 12.6667 6.40625 12.6667C7.87901 12.6667 9.07292 13.8606 9.07292 15.3333M3.73958 15.3333C3.73958 16.8061 4.93349 18 6.40625 18C7.87901 18 9.07292 16.8061 9.07292 15.3333M9.07292 15.3333H20.4062" stroke="white" stroke-width="1.5"/>
</g>
</svg>
