<svg width="16" height="20" viewBox="0 0 16 20" fill="none" xmlns="http://www.w3.org/2000/svg">
<path opacity="0.997" fill-rule="evenodd" clip-rule="evenodd" d="M2.25781 -0.0195312C6.29426 -0.0195312 10.3307 -0.0195312 14.3672 -0.0195312C15.1429 0.201439 15.6181 0.709254 15.793 1.50391C15.819 7.28516 15.819 13.0664 15.793 18.8477C15.6245 19.4263 15.2534 19.8039 14.6797 19.9805C14.4453 19.9805 14.2109 19.9805 13.9766 19.9805C13.7744 19.9054 13.5791 19.8078 13.3906 19.6875C11.8932 18.1901 10.3958 16.6927 8.89844 15.1953C8.53059 14.9264 8.15297 14.9134 7.76563 15.1562C6.2552 16.6667 4.74481 18.1771 3.23438 19.6875C3.04594 19.8078 2.85063 19.9054 2.64844 19.9805C2.41406 19.9805 2.17969 19.9805 1.94531 19.9805C1.37166 19.8039 1.00057 19.4263 0.832032 18.8477C0.805989 13.0664 0.805989 7.28516 0.832032 1.50391C1.00675 0.709769 1.48201 0.201957 2.25781 -0.0195312Z" fill="#A8A8AA"/>
</svg>
