<svg width="24" height="24" viewBox="0 0 24 24" fill="none" xmlns="http://www.w3.org/2000/svg">
<path d="M17.2422 11.9336L20.573 17.7027C20.7567 18.021 20.5459 18.4221 20.1795 18.4511L17.7504 18.6437C17.6002 18.6556 17.4634 18.7346 17.378 18.8587L15.9967 20.8661C15.7884 21.1688 15.3355 21.1509 15.1518 20.8326L11.821 15.0635" stroke="#4CA6A8" stroke-width="1.5"/>
<path d="M6.70312 12.0469L3.39606 17.7749C3.21258 18.0927 3.42253 18.4933 3.78826 18.5232L6.21644 18.7221C6.36569 18.7343 6.50159 18.8127 6.5868 18.9359L7.97309 20.9393C8.18189 21.2411 8.63379 21.2226 8.81726 20.9048L12.1243 15.1768" stroke="#4CA6A8" stroke-width="1.5"/>
<rect x="-0.75" y="0.75" width="12.5" height="12.5" rx="6.25" transform="matrix(-1 0 0 1 17.5 2)" stroke="#4CA6A8" stroke-width="1.5"/>
<path d="M12.6653 6.08018C12.4558 5.43527 11.5434 5.43527 11.3339 6.08019L11.0411 6.98116C10.9474 7.26957 10.6786 7.46484 10.3754 7.46484H9.42804C8.74994 7.46484 8.468 8.33258 9.0166 8.73116L9.78301 9.28799C10.0283 9.46624 10.131 9.7822 10.0373 10.0706L9.74455 10.9716C9.53501 11.6165 10.2731 12.1528 10.8217 11.7542L11.5882 11.1974C11.8335 11.0191 12.1657 11.0191 12.4111 11.1974L13.1775 11.7542C13.7261 12.1528 14.4642 11.6165 14.2547 10.9716L13.9619 10.0706C13.8682 9.7822 13.9709 9.46624 14.2162 9.28799L14.9826 8.73116C15.5312 8.33258 15.2493 7.46484 14.5712 7.46484H13.6238C13.3206 7.46484 13.0518 7.26957 12.9581 6.98116L12.6653 6.08018Z" fill="#4CA6A8"/>
</svg>
