<svg width="24" height="28" viewBox="0 0 24 28" fill="none" xmlns="http://www.w3.org/2000/svg">
<path d="M2.25 12.2266L2.25 11.4766L3.75 11.4766L3.75 12.2266L2.25 12.2266ZM3.75 17.2266C3.75 17.6408 3.41421 17.9766 3 17.9766C2.58579 17.9766 2.25 17.6408 2.25 17.2266L3.75 17.2266ZM3.75 12.2266L3.75 17.2266L2.25 17.2266L2.25 12.2266L3.75 12.2266Z" fill="#4CA6A8"/>
<path d="M18 13.2266V20.4972V20.4972C14.5614 23.4941 9.43862 23.4941 6 20.4972V20.4972V13.2266" stroke="#4CA6A8" stroke-width="1.5"/>
<path d="M14.388 8.21911C12.8881 7.45308 11.1119 7.45308 9.61203 8.21911L2.6447 11.7776L9.61203 15.3361C11.1119 16.1022 12.8881 16.1022 14.388 15.3361L21.3553 11.7776L14.388 8.21911Z" stroke="#4CA6A8" stroke-width="1.5"/>
</svg>
