<svg width="24" height="24" viewBox="0 0 24 24" fill="none" xmlns="http://www.w3.org/2000/svg">
<rect x="-0.75" y="0.75" width="9.5" height="9.5" rx="2.25" transform="matrix(-1 0 0 1 20.5 2)" stroke="#4CA6A8" stroke-width="1.5"/>
<path d="M20 15V15C20 17.7614 17.7614 20 15 20V20" stroke="#4CA6A8" stroke-width="1.5" stroke-linecap="round"/>
<path d="M9 4V4C6.23858 4 4 6.23858 4 9V9" stroke="#4CA6A8" stroke-width="1.5" stroke-linecap="round"/>
<rect x="-0.75" y="0.75" width="9.5" height="9.5" rx="2.25" transform="matrix(-1 0 0 1 11.5 11)" stroke="#4CA6A8" stroke-width="1.5"/>
<path d="M8.70028 17.418C8.594 17.6023 8.477 17.7792 8.34997 17.9475C8.75274 18.1821 9.21016 18.2996 9.72222 18.3V19.5C8.88399 19.5 8.13507 19.2597 7.5 18.7941C6.86493 19.2597 6.11601 19.5 5.27778 19.5V18.3C5.78877 18.3 6.24618 18.1824 6.65 17.9472C6.52297 17.779 6.40598 17.6023 6.29972 17.418C5.97948 16.8557 5.74398 16.2421 5.60201 15.6H5V14.4H6.94444V13.5H8.05556V14.4H10V15.6H9.39799C9.25602 16.2421 9.02052 16.8557 8.70028 17.418ZM6.75243 15.6C6.86738 16.0153 7.03196 16.4126 7.24201 16.782C7.3205 16.9182 7.40665 17.049 7.5 17.1738C7.58656 17.0582 7.6669 16.9374 7.74062 16.8119C7.95921 16.4343 8.12977 16.0267 8.24771 15.6H6.75243Z" fill="#4CA6A8"/>
<path d="M18.626 10.375L18.778 5.079H17.658L17.506 10.375H18.626ZM19.066 4.567L19.202 4.007C19.0153 3.975 18.8767 3.94833 18.786 3.927C18.69 3.90567 18.5887 3.88167 18.482 3.855L18.562 4.055C18.7007 4.007 18.834 3.91367 18.962 3.775C19.0847 3.631 19.146 3.46833 19.146 3.287C19.146 3.095 19.1033 2.94033 19.018 2.823C18.9327 2.70567 18.8233 2.62033 18.69 2.567C18.5567 2.51367 18.418 2.487 18.274 2.487C18.194 2.487 18.1193 2.49233 18.05 2.503C17.9753 2.51367 17.9087 2.52967 17.85 2.551L17.914 3.127C17.9673 3.11633 18.0207 3.10567 18.074 3.095C18.1273 3.08433 18.186 3.079 18.25 3.079C18.3193 3.079 18.3833 3.103 18.442 3.151C18.4953 3.19367 18.522 3.247 18.522 3.311C18.522 3.40167 18.49 3.48167 18.426 3.551C18.362 3.62033 18.2873 3.67633 18.202 3.719C18.1113 3.75633 18.0367 3.77767 17.978 3.783L18.418 3.831C18.274 3.79367 18.138 3.75633 18.01 3.719C17.882 3.67633 17.762 3.63367 17.65 3.591L17.49 4.127C17.6233 4.175 17.7807 4.22833 17.962 4.287C18.138 4.34033 18.322 4.391 18.514 4.439C18.7007 4.487 18.8847 4.52967 19.066 4.567Z" fill="#4CA6A8"/>
</svg>
