<svg width="44" height="44" viewBox="0 0 44 44" fill="none" xmlns="http://www.w3.org/2000/svg">
<rect width="44" height="44" rx="12" fill="#4CA6A8"/>
<g clip-path="url(#clip0_137_5644)">
<path fill-rule="evenodd" clip-rule="evenodd" d="M25.3752 22.7083C25.5627 22.5208 25.668 22.2665 25.668 22.0013C25.668 21.7362 25.5627 21.4818 25.3752 21.2943L19.7182 15.6373C19.6259 15.5418 19.5156 15.4656 19.3936 15.4132C19.2716 15.3608 19.1404 15.3332 19.0076 15.3321C18.8748 15.3309 18.7431 15.3562 18.6202 15.4065C18.4973 15.4568 18.3857 15.531 18.2918 15.6249C18.1979 15.7188 18.1236 15.8305 18.0734 15.9534C18.0231 16.0763 17.9978 16.2079 17.9989 16.3407C18.0001 16.4735 18.0277 16.6047 18.0801 16.7267C18.1325 16.8487 18.2087 16.9591 18.3042 17.0513L23.2542 22.0013L18.3042 26.9513C18.122 27.1399 18.0212 27.3925 18.0235 27.6547C18.0258 27.9169 18.131 28.1677 18.3164 28.3531C18.5018 28.5385 18.7526 28.6437 19.0148 28.646C19.277 28.6483 19.5296 28.5475 19.7182 28.3653L25.3752 22.7083Z" fill="white"/>
</g>
<defs>
<clipPath id="clip0_137_5644">
<rect width="24" height="24" fill="white" transform="translate(10 10)"/>
</clipPath>
</defs>
</svg>
