<svg width="37" height="14" viewBox="0 0 37 14" fill="none" xmlns="http://www.w3.org/2000/svg">
<g id="Vector">
<path d="M2.64286 9.33333C4.10247 9.33333 5.28571 10.378 5.28571 11.6667C5.28571 12.9553 4.10247 14 2.64286 14C1.18325 14 2.64931e-08 12.9553 5.91739e-08 11.6667C9.18548e-08 10.378 1.18325 9.33333 2.64286 9.33333Z" fill="#229194"/>
<path d="M2.64286 1.48193e-08C4.10247 2.30038e-08 5.28571 1.04467 5.28571 2.33333C5.28571 3.622 4.10247 4.66667 2.64286 4.66667C1.18325 4.66667 2.63189e-07 3.622 2.9587e-07 2.33333C3.2855e-07 1.04467 1.18325 6.63484e-09 2.64286 1.48193e-08Z" fill="#229194"/>
<path d="M13.2143 9.33333C14.6739 9.33333 15.8571 10.378 15.8571 11.6667C15.8571 12.9553 14.6739 14 13.2143 14C11.7547 14 10.5714 12.9553 10.5714 11.6667C10.5714 10.378 11.7547 9.33333 13.2143 9.33333Z" fill="#229194"/>
<path d="M13.2143 7.40966e-08C14.6739 8.22811e-08 15.8571 1.04467 15.8571 2.33333C15.8571 3.622 14.6739 4.66667 13.2143 4.66667C11.7547 4.66667 10.5714 3.622 10.5714 2.33333C10.5714 1.04467 11.7547 6.59121e-08 13.2143 7.40966e-08Z" fill="#229194"/>
<path d="M23.7857 9.33333C25.2453 9.33333 26.4286 10.378 26.4286 11.6667C26.4286 12.9553 25.2453 14 23.7857 14C22.3261 14 21.1429 12.9553 21.1429 11.6667C21.1429 10.378 22.3261 9.33333 23.7857 9.33333Z" fill="#229194"/>
<path d="M23.7857 1.33374e-07C25.2453 1.41558e-07 26.4286 1.04467 26.4286 2.33333C26.4286 3.622 25.2453 4.66667 23.7857 4.66667C22.3261 4.66667 21.1429 3.622 21.1429 2.33333C21.1429 1.04467 22.3261 1.25189e-07 23.7857 1.33374e-07Z" fill="#229194"/>
<path d="M34.3571 9.33333C35.8168 9.33333 37 10.378 37 11.6667C37 12.9553 35.8168 14 34.3571 14C32.8975 14 31.7143 12.9553 31.7143 11.6667C31.7143 10.378 32.8975 9.33333 34.3571 9.33333Z" fill="#229194"/>
<path d="M34.3571 1.92651e-07C35.8168 2.00836e-07 37 1.04467 37 2.33333C37 3.622 35.8168 4.66667 34.3571 4.66667C32.8975 4.66667 31.7143 3.622 31.7143 2.33333C31.7143 1.04467 32.8975 1.84467e-07 34.3571 1.92651e-07Z" fill="#229194"/>
</g>
</svg>
