<svg width="20" height="20" viewBox="0 0 20 20" fill="none" xmlns="http://www.w3.org/2000/svg">
<g id="save-instagram 2">
<g id="Group">
<path id="Vector" d="M6.57143 9.44444H13.4286C13.5909 9.44444 13.7265 9.39111 13.8354 9.28444C13.9444 9.17778 13.9992 9.04556 14 8.88778C14.0008 8.73 13.9459 8.59815 13.8354 8.49222C13.725 8.3863 13.5893 8.33333 13.4286 8.33333H6.57143C6.40914 8.33333 6.27352 8.38667 6.16457 8.49333C6.05562 8.6 6.00076 8.73222 6 8.89C5.99924 9.04778 6.05409 9.17963 6.16457 9.28556C6.27505 9.39148 6.41067 9.44444 6.57143 9.44444ZM6.57143 5H13.4286C13.5909 5 13.7265 4.94667 13.8354 4.84C13.9444 4.73333 13.9992 4.60111 14 4.44333C14.0008 4.28556 13.9459 4.1537 13.8354 4.04778C13.725 3.94185 13.5893 3.88889 13.4286 3.88889H6.57143C6.40914 3.88889 6.27352 3.94222 6.16457 4.04889C6.05562 4.15556 6.00076 4.28778 6 4.44556C5.99924 4.60333 6.05409 4.73519 6.16457 4.84111C6.27505 4.94704 6.41067 5 6.57143 5ZM17.8994 18.8189L13.9863 13.9011C13.712 13.5441 13.381 13.2678 12.9931 13.0722C12.6046 12.8759 12.1783 12.7778 11.7143 12.7778H2V1.79556C2 1.2837 2.17638 0.856667 2.52914 0.514445C2.8819 0.172222 3.32114 0.000740741 3.84686 0H16.1543C16.68 0 17.1192 0.171482 17.472 0.514445C17.8248 0.857408 18.0008 1.28444 18 1.79556V18.2056C18 18.3181 17.9916 18.4256 17.9749 18.5278C17.9581 18.63 17.933 18.727 17.8994 18.8189ZM3.84686 20C3.32038 20 2.88114 19.8289 2.52914 19.4867C2.17714 19.1444 2.00076 18.7174 2 18.2056V13.8889H11.7143C11.9939 13.8889 12.2522 13.9496 12.4891 14.0711C12.7269 14.1919 12.9295 14.3596 13.0971 14.5744L17.128 19.7033C16.9886 19.7974 16.8373 19.8704 16.6743 19.9222C16.5112 19.9741 16.3375 20 16.1531 20H3.84686Z" fill="#4CA6A8"/>
</g>
</g>
</svg>
